<svg width="236" height="330" viewBox="0 0 236 330" fill="none" xmlns="http://www.w3.org/2000/svg">
<path d="M118 0C52.8566 0 0 47.5185 0 106.071C0 200.357 118 330 118 330C118 330 236 200.357 236 106.071C236 47.5185 183.143 0 118 0ZM118 165C108.665 165 99.5391 162.235 91.7771 157.055C84.0151 151.875 77.9653 144.512 74.3929 135.898C70.8204 127.284 69.8857 117.805 71.7069 108.66C73.5282 99.5152 78.0235 91.1152 84.6246 84.5221C91.2256 77.9291 99.6358 73.4391 108.792 71.6201C117.948 69.8011 127.438 70.7347 136.063 74.3028C144.687 77.8709 152.059 83.9134 157.245 91.666C162.432 99.4186 165.2 108.533 165.2 117.857C165.186 130.356 160.209 142.339 151.36 151.177C142.512 160.015 130.514 164.986 118 165Z" fill="white"/>
</svg>
